<svg xmlns="http://www.w3.org/2000/svg" width="512" height="512" viewBox="0 0 512 512" role="img" aria-label="Family Calendar">
  <defs>
    <linearGradient id="g" x1="0" y1="0" x2="1" y2="1">
      <stop offset="0" stop-color="#1a73e8"/>
      <stop offset="1" stop-color="#1558b0"/>
    </linearGradient>
  </defs>
  <rect x="32" y="32" width="448" height="448" rx="96" fill="url(#g)"/>
  <rect x="120" y="154" width="272" height="238" rx="28" fill="#ffffff" opacity="0.92"/>
  <rect x="120" y="154" width="272" height="64" rx="28" fill="#ffffff"/>
  <rect x="160" y="120" width="40" height="72" rx="20" fill="#ffffff"/>
  <rect x="312" y="120" width="40" height="72" rx="20" fill="#ffffff"/>
  <g fill="#1a73e8" opacity="0.9">
    <circle cx="186" cy="260" r="14"/>
    <circle cx="256" cy="260" r="14"/>
    <circle cx="326" cy="260" r="14"/>
    <circle cx="186" cy="318" r="14"/>
    <circle cx="256" cy="318" r="14"/>
    <circle cx="326" cy="318" r="14"/>
  </g>
  <path d="M256 408c22 0 40-18 40-40 0-31-40-78-40-78s-40 47-40 78c0 22 18 40 40 40z" fill="#1a73e8" opacity="0.95"/>
</svg>
